<?xml version="1.0" standalone="no"?>
<!DOCTYPE svg PUBLIC "-//W3C//DTD SVG 20010904//EN"
 "http://www.w3.org/TR/2001/REC-SVG-20010904/DTD/svg10.dtd">
<svg version="1.0" xmlns="http://www.w3.org/2000/svg"
 width="192.000000pt" height="192.000000pt" viewBox="0 0 192.000000 192.000000"
 preserveAspectRatio="xMidYMid meet">
<g transform="translate(0.000000,192.000000) scale(0.100000,-0.100000)"
fill="#47A4FD" stroke="4776FD">
<path d="M880 1849 c0 -4 10 -9 22 -13 18 -4 20 -8 11 -17 -9 -9 -16 -9 -26
-1 -8 7 -18 8 -22 4 -5 -4 -5 -2 -1 5 9 16 -10 26 -22 10 -5 -6 -8 -20 -7 -29
2 -10 -1 -20 -6 -24 -5 -3 -9 0 -9 5 0 6 -7 11 -17 11 -15 0 -15 1 0 18 21 23
22 39 2 22 -8 -6 -18 -9 -23 -6 -13 8 -84 -13 -104 -31 -9 -8 -21 -12 -27 -9
-13 8 -93 -31 -104 -51 -5 -7 -13 -11 -18 -7 -12 7 -73 -32 -143 -90 -121
-102 -233 -284 -277 -451 -31 -117 -31 -309 -1 -424 47 -173 125 -304 255
-428 94 -89 203 -154 327 -195 82 -26 114 -31 232 -36 118 -4 151 -1 232 17
106 25 231 81 321 146 103 73 246 240 229 267 -4 6 -3 8 4 4 11 -6 26 25 31
65 0 5 5 8 10 4 6 -3 13 10 17 30 3 19 10 38 15 41 13 8 11 34 -2 31 -6 -1
-14 4 -17 12 -3 8 0 11 7 7 6 -4 11 0 12 11 0 17 1 16 8 -1 6 -16 10 -10 20
27 8 25 11 53 8 61 -4 9 -2 18 3 21 19 12 10 30 -15 31 -19 2 -25 -3 -25 -18
0 -10 5 -16 10 -13 6 3 10 -3 10 -15 0 -27 -18 -17 -31 17 -11 31 6 60 26 43
18 -15 39 12 23 28 -9 9 -9 12 0 12 7 0 12 16 12 40 0 25 -5 40 -12 40 -10 0
-10 2 0 9 11 7 11 9 -1 14 -8 3 -18 3 -22 -1 -4 -4 -11 -8 -16 -8 -5 -1 -10
-2 -11 -4 -2 -1 -23 -7 -48 -13 -42 -11 -45 -15 -51 -52 l-6 -40 -2 40 c-1 49
12 65 56 65 18 0 33 4 33 8 0 4 -17 7 -37 5 -21 -1 -30 0 -20 3 9 3 15 10 12
15 -4 5 7 6 25 3 24 -5 30 -3 30 10 0 10 5 14 11 11 6 -4 8 -13 5 -21 -3 -8 1
-14 9 -14 18 0 28 17 15 25 -18 11 -11 23 10 18 11 -3 20 0 20 6 0 6 -4 11 -9
11 -4 0 -6 12 -3 26 3 19 1 25 -7 20 -6 -4 -9 -12 -6 -17 4 -5 2 -9 -4 -9 -5
0 -13 5 -16 10 -4 6 -10 8 -15 5 -5 -3 -11 -1 -15 4 -3 6 -12 8 -20 5 -12 -5
-12 -1 1 25 19 39 34 48 34 22 0 -11 -5 -23 -10 -26 -21 -13 1 -23 25 -12 30
15 30 14 3 99 -16 51 -24 64 -29 51 -5 -12 -8 -6 -8 20 -1 34 -3 37 -29 37
-28 0 -52 -16 -52 -34 0 -5 8 -2 18 7 23 21 39 22 22 2 -14 -17 -5 -35 17 -35
15 0 14 -2 0 -18 -10 -10 -14 -22 -10 -25 3 -4 2 -7 -4 -7 -20 0 -34 25 -21
38 13 13 4 27 -11 17 -6 -3 -11 -17 -11 -31 0 -14 -4 -22 -10 -19 -5 3 -6 20
-3 38 6 29 5 31 -10 18 -15 -12 -17 -11 -17 3 0 12 -5 16 -19 11 -10 -3 -23 1
-30 8 -9 12 -4 14 34 12 41 -2 57 5 61 28 1 4 3 9 4 12 7 13 5 31 -3 42 -5 7
-6 17 -2 23 3 5 -1 10 -10 10 -9 0 -13 5 -10 10 4 6 12 7 18 4 7 -4 1 5 -12
19 -13 15 -27 24 -31 22 -7 -4 -50 31 -50 40 0 2 8 1 18 -2 15 -6 15 -5 3 10
-17 21 -31 13 -31 -19 0 -14 -4 -22 -10 -19 -15 9 -12 -4 5 -21 8 -8 11 -22 8
-32 -6 -15 -5 -15 10 -4 23 19 49 11 53 -15 3 -17 0 -21 -13 -16 -13 5 -15 1
-11 -20 3 -15 1 -24 -3 -21 -5 3 -9 11 -9 17 0 7 -10 17 -22 22 -13 6 -23 17
-23 25 -1 8 -6 14 -13 12 -7 -1 -11 1 -11 5 1 5 1 16 0 27 -1 15 -4 16 -16 6
-12 -10 -15 -10 -15 3 0 23 -18 31 -37 15 -14 -11 -16 -11 -11 3 4 9 1 22 -5
29 -9 10 -9 11 0 6 6 -3 14 -2 18 4 3 5 -1 10 -11 10 -13 0 -14 3 -5 13 6 8 8
17 4 20 -3 4 -2 7 4 7 16 0 34 -26 25 -35 -4 -5 2 -5 12 -1 12 4 26 0 37 -10
11 -10 20 -14 20 -11 5 25 4 33 -3 44 -5 6 -21 9 -34 7 -16 -3 -23 -1 -19 6 3
5 13 10 22 10 14 0 14 3 -2 20 -12 14 -25 18 -42 14 -17 -5 -23 -2 -21 7 4 17
-40 25 -55 10 -6 -6 -21 -11 -32 -11 -12 0 -30 -9 -40 -20 -17 -19 -17 -21 0
-40 11 -13 31 -20 53 -20 28 0 32 -3 23 -13 -6 -8 -8 -17 -4 -20 3 -4 -8 -7
-26 -7 -19 0 -30 4 -26 10 4 6 -5 10 -19 10 -14 0 -25 3 -25 8 3 19 -2 45 -8
39 -3 -4 -12 -2 -20 4 -9 8 -17 8 -26 0 -17 -13 -37 4 -37 33 0 18 1 18 19 2
21 -19 60 -17 85 3 15 13 15 15 1 31 -13 14 -20 16 -40 6 -13 -6 -21 -14 -19
-18 3 -5 1 -8 -5 -8 -14 0 -25 21 -27 48 -1 16 5 22 19 22 17 0 18 -2 6 -17
-13 -15 -11 -16 18 -10 18 3 35 2 38 -3 4 -6 13 -5 24 2 20 12 56 4 46 -11
-10 -16 12 -22 25 -6 7 8 17 12 24 8 6 -3 4 2 -6 12 -9 10 -28 18 -42 18 -14
0 -23 3 -21 8 3 4 -3 13 -14 18 -26 14 -28 14 -33 -7 -3 -10 -12 -19 -21 -19
-12 0 -14 7 -11 26 5 23 1 28 -29 39 -19 7 -55 14 -81 16 -25 2 -52 9 -60 15
-14 11 -106 12 -106 1 0 -4 5 -11 12 -18 9 -9 7 -12 -9 -12 -15 0 -20 6 -19
22 1 17 -4 23 -19 22 -12 0 -19 -6 -17 -14 2 -12 0 -12 -10 1 -13 15 -58 21
-58 8z m195 -18 c-3 -5 -1 -12 5 -16 15 -9 12 -61 -4 -74 -10 -8 -16 -9 -21
-1 -3 5 -2 10 4 10 12 0 3 58 -12 78 -7 9 -4 12 12 12 12 0 20 -4 16 -9z
m-115 -71 c-7 -32 -9 -33 -15 -12 -4 12 -14 22 -21 22 -8 0 -14 5 -14 11 0 5
4 8 9 5 5 -3 14 1 21 10 19 22 30 4 20 -36z m87 43 c-4 -3 -10 -3 -14 0 -3 4
0 7 7 7 7 0 10 -3 7 -7z m120 -10 c-14 -14 -19 -15 -29 -4 -11 11 -10 13 4 8
10 -3 20 -2 23 3 4 6 9 10 13 10 3 0 -1 -8 -11 -17z m45 -5 c-7 -7 -12 -8 -12
-2 0 14 12 26 19 19 2 -3 -1 -11 -7 -17z m-217 2 c3 -5 4 -10 1 -10 -3 0 -8 5
-11 10 -3 6 -4 10 -1 10 3 0 8 -4 11 -10z m116 -21 c-9 -22 -10 -22 -10 -3 -1
11 2 24 6 27 12 12 14 0 4 -24z m-349 -11 c-9 -9 -12 -7 -12 12 0 19 3 21 12
12 9 -9 9 -15 0 -24z m121 4 c-4 -18 -8 -20 -19 -11 -16 13 -19 33 -5 24 5 -3
13 0 16 6 11 16 15 6 8 -19z m150 -2 c3 -11 1 -23 -4 -26 -6 -3 -5 -11 2 -20
7 -8 7 -14 1 -14 -17 0 -34 27 -22 35 7 4 10 18 7 31 -5 28 8 23 16 -6z m227
16 c-7 -7 -13 -7 -20 0 -6 6 -3 10 10 10 13 0 16 -4 10 -10z m-613 -23 c-4 -3
-7 0 -7 7 0 7 3 10 7 7 3 -4 3 -10 0 -14z m93 -4 c0 -9 -7 -16 -15 -15 -19 3
-28 13 -21 24 9 15 36 9 36 -9z m252 -1 c-7 -7 -12 -8 -12 -2 0 14 12 26 19
19 2 -3 -1 -11 -7 -17z m180 0 c-7 -7 -12 -8 -12 -2 0 14 12 26 19 19 2 -3 -1
-11 -7 -17z m25 5 c-4 -3 -7 0 -7 7 0 7 3 10 7 7 3 -4 3 -10 0 -14z m130 0
c-4 -3 -7 0 -7 7 0 7 3 10 7 7 3 -4 3 -10 0 -14z m-710 -25 c-3 -7 -5 -2 -5
12 0 14 2 19 5 13 2 -7 2 -19 0 -25z m528 22 c3 -5 2 -10 -4 -10 -5 0 -13 5
-16 10 -3 6 -2 10 4 10 5 0 13 -4 16 -10z m-568 -27 c-4 -3 -10 -3 -14 0 -3 4
0 7 7 7 7 0 10 -3 7 -7z m109 -8 c-3 -24 -14 -29 -32 -14 -15 12 -14 14 3 20
27 11 31 10 29 -6z m441 8 c-4 -3 -10 -3 -14 0 -3 4 0 7 7 7 7 0 10 -3 7 -7z
m48 -14 c1 -8 6 -13 13 -11 7 1 12 -7 12 -19 0 -11 -4 -18 -9 -14 -5 3 -12 1
-16 -4 -8 -15 -35 -2 -29 14 3 7 0 16 -6 20 -8 5 -8 11 1 21 14 17 34 13 34
-7z m-670 2 c3 -5 1 -12 -5 -16 -5 -3 -10 1 -10 9 0 18 6 21 15 7z m231 0 c-3
-4 3 -16 14 -26 11 -10 20 -23 20 -28 0 -6 -10 -1 -23 11 -13 12 -29 22 -37
22 -9 0 -7 5 6 15 22 17 27 18 20 6z m169 -1 c3 -5 -3 -10 -15 -10 -12 0 -18
5 -15 10 3 6 10 10 15 10 5 0 12 -4 15 -10z m170 0 c3 -5 4 -10 1 -10 -3 0 -8
5 -11 10 -3 6 -4 10 -1 10 3 0 8 -4 11 -10z m-498 -7 c-4 -3 -10 -3 -14 0 -3
4 0 7 7 7 7 0 10 -3 7 -7z m33 -8 c-7 -8 -17 -15 -23 -15 -6 0 -2 7 9 15 25
19 30 19 14 0z m167 8 c-4 -3 -10 -3 -14 0 -3 4 0 7 7 7 7 0 10 -3 7 -7z m48
-3 c3 -5 2 -10 -4 -10 -5 0 -13 5 -16 10 -3 6 -2 10 4 10 5 0 13 -4 16 -10z
m-348 -7 c-4 -3 -10 -3 -14 0 -3 4 0 7 7 7 7 0 10 -3 7 -7z m509 -6 c4 -4 2
-7 -4 -7 -7 0 -13 -8 -13 -17 -1 -17 -2 -17 -6 0 -2 9 -11 17 -18 17 -8 0 -16
4 -20 9 -6 11 51 9 61 -2z m311 -14 c-4 -3 -7 0 -7 7 0 7 3 10 7 7 3 -4 3 -10
0 -14z m-197 -23 c0 -10 -4 -22 -10 -25 -5 -3 -10 1 -10 10 0 9 -4 13 -10 10
-14 -9 -13 8 2 23 14 14 28 6 28 -18z m-483 3 c-4 -3 -7 0 -7 7 0 7 3 10 7 7
3 -4 3 -10 0 -14z m48 7 c3 -5 4 -10 1 -10 -3 0 -8 5 -11 10 -3 6 -4 10 -1 10
3 0 8 -4 11 -10z m192 -7 c-4 -3 -7 0 -7 7 0 7 3 10 7 7 3 -4 3 -10 0 -14z
m55 5 c12 12 38 -1 38 -20 0 -6 -7 -5 -15 2 -12 10 -19 10 -27 2 -12 -12 -38
1 -38 20 0 6 7 5 15 -2 12 -10 19 -10 27 -2z m575 -5 c-4 -3 -7 0 -7 7 0 7 3
10 7 7 3 -4 3 -10 0 -14z m-770 -10 c-4 -3 -7 0 -7 7 0 7 3 10 7 7 3 -4 3 -10
0 -14z m110 0 c-4 -3 -7 0 -7 7 0 7 3 10 7 7 3 -4 3 -10 0 -14z m593 -6 c0
-15 -3 -17 -13 -8 -8 6 -17 8 -20 4 -4 -3 -7 -2 -7 4 0 14 8 20 25 20 8 0 15
-9 15 -20z m17 -9 c-3 -7 -5 -2 -5 12 0 14 2 19 5 13 2 -7 2 -19 0 -25z m20
15 c-4 -3 -7 0 -7 7 0 7 3 10 7 7 3 -4 3 -10 0 -14z m-820 -10 c-4 -3 -7 0 -7
7 0 7 3 10 7 7 3 -4 3 -10 0 -14z m406 -1 c10 -10 14 -22 10 -25 -12 -12 -21
-7 -19 11 0 10 -6 16 -16 16 -10 -1 -15 2 -12 7 8 14 19 11 37 -9z m317 10 c0
-5 -7 -9 -15 -9 -8 0 -12 4 -9 9 3 4 9 8 15 8 5 0 9 -4 9 -8z m-445 -26 c13 5
16 4 11 -4 -4 -7 -13 -12 -21 -12 -8 0 -19 -8 -24 -17 -12 -20 -11 -20 -16 25
-3 32 -3 33 14 18 11 -10 25 -14 36 -10z m-408 -3 c-4 -3 -7 0 -7 7 0 7 3 10
7 7 3 -4 3 -10 0 -14z m240 0 c-4 -3 -7 0 -7 7 0 7 3 10 7 7 3 -4 3 -10 0 -14z
m253 -17 c-6 -6 -15 -4 -25 4 -23 19 -18 29 9 17 15 -7 21 -16 16 -21z m135
24 c-3 -5 -11 -10 -16 -10 -6 0 -7 5 -4 10 3 6 11 10 16 10 6 0 7 -4 4 -10z
m-423 -15 c0 -5 -5 -11 -10 -13 -5 -1 -9 4 -9 13 0 9 4 14 9 13 5 -2 10 -8 10
-13z m513 5 c3 -5 2 -10 -4 -10 -5 0 -13 5 -16 10 -3 6 -2 10 4 10 5 0 13 -4
16 -10z m142 3 c-4 -3 -10 -3 -14 0 -3 4 0 7 7 7 7 0 10 -3 7 -7z m-752 -13
c3 -5 4 -10 1 -10 -3 0 -8 5 -11 10 -3 6 -4 10 -1 10 3 0 8 -4 11 -10z m671
-15 c0 -27 -20 -34 -29 -11 -5 13 10 36 23 36 3 0 6 -11 6 -25z m-489 8 c-4
-3 -10 -3 -14 0 -3 4 0 7 7 7 7 0 10 -3 7 -7z m340 0 c-9 -2 -15 -8 -12 -12 2
-5 -7 -19 -20 -31 -14 -13 -25 -19 -25 -13 0 6 7 16 15 23 8 6 14 15 13 18 -2
17 4 22 25 21 17 -1 18 -2 4 -6z m48 -3 c-3 -5 -12 -10 -18 -10 -7 0 -6 4 3
10 19 12 23 12 15 0z m-437 -25 c-3 -3 -9 2 -12 12 -6 14 -5 15 5 6 7 -7 10
-15 7 -18z m167 15 c-3 -5 -11 -10 -16 -10 -6 0 -7 5 -4 10 3 6 11 10 16 10 6
0 7 -4 4 -10z m157 -22 c-7 -7 -12 -8 -12 -2 0 14 12 26 19 19 2 -3 -1 -11 -7
-17z m156 10 c-2 -5 -8 -9 -13 -9 -5 0 -11 4 -13 9 -1 5 4 9 13 9 9 0 14 -4
13 -9z m-251 -15 c-4 -3 -7 0 -7 7 0 7 3 10 7 7 3 -4 3 -10 0 -14z m457 -26
c-5 -16 -3 -19 10 -14 9 4 16 2 16 -3 0 -6 11 -10 24 -10 14 0 27 -4 30 -8 7
-12 -67 -12 -81 -1 -7 7 -14 6 -18 -1 -3 -5 -16 -10 -28 -10 -21 0 -21 1 3 13
20 10 25 20 23 45 -1 27 1 31 13 21 9 -7 12 -20 8 -32z m-907 16 c-4 -3 -7 0
-7 7 0 7 3 10 7 7 3 -4 3 -10 0 -14z m240 0 c-4 -3 -7 0 -7 7 0 7 3 10 7 7 3
-4 3 -10 0 -14z m-120 -10 c-4 -3 -7 0 -7 7 0 7 3 10 7 7 3 -4 3 -10 0 -14z
m175 -5 c-7 -7 -12 -8 -12 -2 0 14 12 26 19 19 2 -3 -1 -11 -7 -17z m40 0 c-7
-7 -12 -8 -12 -2 0 14 12 26 19 19 2 -3 -1 -11 -7 -17z m95 5 c-4 -3 -7 0 -7
7 0 7 3 10 7 7 3 -4 3 -10 0 -14z m193 -8 c14 -19 14 -19 -2 -6 -10 7 -18 18
-18 24 0 6 1 8 3 6 1 -2 9 -13 17 -24z m27 8 c-4 -3 -7 0 -7 7 0 7 3 10 7 7 3
-4 3 -10 0 -14z m20 0 c-4 -3 -7 0 -7 7 0 7 3 10 7 7 3 -4 3 -10 0 -14z m105
-25 c-8 -8 -12 -9 -12 -1 0 6 -3 20 -6 30 -7 17 -6 17 12 1 14 -14 16 -20 6
-30z m39 0 c-9 -9 -12 -9 -7 -1 3 6 2 14 -4 18 -5 3 -10 11 -10 18 0 6 7 4 17
-6 14 -14 15 -19 4 -29z m-834 15 c-4 -3 -7 0 -7 7 0 7 3 10 7 7 3 -4 3 -10 0
-14z m403 13 c0 -3 -5 -8 -12 -12 -7 -4 -8 -3 -4 4 7 12 16 16 16 8z m355 -14
c3 -9 0 -12 -9 -9 -15 6 -36 -11 -36 -29 0 -7 8 -10 20 -7 11 3 17 10 13 15
-3 6 0 9 6 7 17 -6 16 -22 -3 -34 -31 -20 -70 31 -46 60 13 15 49 13 55 -3z
m-638 -9 c-4 -3 -7 0 -7 7 0 7 3 10 7 7 3 -4 3 -10 0 -14z m440 0 c-4 -3 -7 0
-7 7 0 7 3 10 7 7 3 -4 3 -10 0 -14z m-540 -10 c-4 -3 -7 0 -7 7 0 7 3 10 7 7
3 -4 3 -10 0 -14z m408 7 c-3 -5 -16 -10 -28 -9 -21 0 -21 1 -2 9 28 12 37 12
30 0z m112 -4 c0 -9 -13 -16 -33 -18 -18 -2 -30 0 -28 4 3 4 12 8 20 8 8 0 12
5 9 10 -3 6 2 10 13 10 10 0 19 -6 19 -14z m69 -7 c14 -16 15 -21 4 -17 -22 8
-59 -29 -53 -53 4 -15 8 -17 19 -8 11 9 14 8 14 -2 0 -8 18 -22 40 -31 22 -9
40 -12 40 -7 0 5 5 9 11 9 5 0 8 -4 5 -8 -2 -4 -2 -12 2 -18 10 -13 80 -65 88
-64 9 2 33 -34 28 -41 -2 -4 3 -13 12 -20 9 -7 20 -23 25 -36 5 -13 15 -23 23
-23 10 0 13 -8 10 -25 -3 -20 -1 -23 13 -18 16 6 16 4 5 -9 -13 -17 -7 -88 7
-88 4 0 4 -28 -1 -62 -6 -46 -5 -64 4 -70 9 -5 9 -8 1 -8 -6 0 -19 -24 -29
-52 -69 -212 -276 -341 -491 -308 -192 30 -342 180 -376 374 -23 134 32 296
133 390 47 44 155 106 184 106 9 0 14 6 12 13 -1 6 -1 8 2 4 7 -14 126 5 140
22 12 14 13 14 8 -1 -3 -10 -1 -18 3 -18 5 0 17 -3 27 -7 14 -5 16 -2 11 16
-4 16 -2 21 8 18 16 -7 54 33 48 51 -7 18 1 15 23 -9z m481 14 c-4 -3 -10 -3
-14 0 -3 4 0 7 7 7 7 0 10 -3 7 -7z m-1010 -20 c-4 -3 -10 -3 -14 0 -3 4 0 7
7 7 7 0 10 -3 7 -7z m90 0 c-4 -3 -10 -3 -14 0 -3 4 0 7 7 7 7 0 10 -3 7 -7z
m509 -9 c0 -5 6 -22 12 -37 15 -36 15 -36 -5 -33 -10 2 -18 12 -18 23 0 11 -6
27 -12 35 -7 8 -10 18 -6 22 9 8 28 2 29 -10z m-361 -4 c3 -5 2 -10 -4 -10 -5
0 -13 5 -16 10 -3 6 -2 10 4 10 5 0 13 -4 16 -10z m91 -13 c1 -10 -2 -17 -8
-15 -5 2 -9 8 -8 13 1 5 -7 13 -17 17 -15 6 -13 7 6 5 15 -1 25 -9 27 -20z
m431 16 c-4 -3 -10 -3 -14 0 -3 4 0 7 7 7 7 0 10 -3 7 -7z m-780 -10 c-4 -3
-10 -3 -14 0 -3 4 0 7 7 7 7 0 10 -3 7 -7z m733 -7 c0 -3 -5 -8 -12 -12 -7 -4
-8 -3 -4 4 7 12 16 16 16 8z m87 -3 c-4 -3 -10 -3 -14 0 -3 4 0 7 7 7 7 0 10
-3 7 -7z m43 -4 c0 -4 -4 -11 -10 -14 -14 -8 -13 -26 1 -22 6 1 14 -4 16 -11
3 -7 1 -12 -4 -11 -21 4 -24 -2 -12 -18 13 -16 12 -17 -3 -4 -23 17 -25 88 -3
88 8 0 15 -4 15 -8z m-745 -9 c3 -5 2 -10 -4 -10 -5 0 -13 5 -16 10 -3 6 -2
10 4 10 5 0 13 -4 16 -10z m52 -7 c-4 -3 -7 0 -7 7 0 7 3 10 7 7 3 -4 3 -10 0
-14z m914 -26 c-7 -7 -7 -14 0 -23 12 -14 -2 -26 -18 -16 -8 5 -6 19 6 45 10
25 17 32 19 22 2 -10 -1 -22 -7 -28z m-314 16 c-4 -3 -7 0 -7 7 0 7 3 10 7 7
3 -4 3 -10 0 -14z m-580 -10 c-4 -3 -7 0 -7 7 0 7 3 10 7 7 3 -4 3 -10 0 -14z
m475 -5 c-7 -7 -12 -8 -12 -2 0 14 12 26 19 19 2 -3 -1 -11 -7 -17z m88 1 c0
-6 -4 -7 -10 -4 -5 3 -10 11 -10 16 0 6 5 7 10 4 6 -3 10 -11 10 -16z m182 -3
c7 5 22 9 34 10 16 0 21 -5 21 -27 0 -24 -3 -27 -15 -16 -8 6 -31 12 -50 12
-29 0 -36 4 -39 24 -3 24 -3 24 16 7 12 -11 25 -15 33 -10z m-910 -8 c-7 -7
-12 -8 -12 -2 0 14 12 26 19 19 2 -3 -1 -11 -7 -17z m128 1 c0 -6 -4 -7 -10
-4 -5 3 -10 11 -10 16 0 6 5 7 10 4 6 -3 10 -11 10 -16z m640 7 c0 -3 -5 -8
-12 -12 -7 -4 -8 -3 -4 4 7 12 16 16 16 8z m-673 -23 c-4 -3 -10 -3 -14 0 -3
4 0 7 7 7 7 0 10 -3 7 -7z m558 -3 c3 -5 2 -10 -4 -10 -5 0 -13 5 -16 10 -3 6
-2 10 4 10 5 0 13 -4 16 -10z m355 -5 c7 -8 8 -15 2 -15 -5 0 -15 7 -22 15 -7
8 -8 15 -2 15 5 0 15 -7 22 -15z m-225 -5 c-3 -5 -11 -10 -16 -10 -6 0 -7 5
-4 10 3 6 11 10 16 10 6 0 7 -4 4 -10z m-86 -14 c8 -9 8 -16 2 -20 -6 -4 -7
-14 -4 -23 4 -11 3 -14 -6 -9 -7 5 -10 15 -7 23 4 9 1 22 -5 29 -7 8 -7 14 -1
14 5 0 15 -6 21 -14z m168 7 c-4 -3 -10 -3 -14 0 -3 4 0 7 7 7 7 0 10 -3 7 -7z
m-210 -10 c-4 -3 -10 -3 -14 0 -3 4 0 7 7 7 7 0 10 -3 7 -7z m150 0 c-4 -3 -2
-12 4 -20 9 -11 15 -11 27 -1 13 11 14 9 7 -12 -9 -29 -34 -60 -48 -60 -6 0
-2 9 8 20 18 20 18 21 -3 43 -21 22 -20 37 1 37 6 0 7 -3 4 -7z m127 -12 c3
-5 0 -13 -7 -19 -10 -8 -13 -6 -13 9 0 20 11 25 20 10z m36 -13 c0 -16 -3 -19
-11 -11 -6 6 -8 16 -5 22 11 17 16 13 16 -11z m-83 -12 c-7 -15 -16 -21 -21
-16 -6 6 -4 15 4 25 19 23 29 18 17 -9z m-127 -17 c0 -11 -4 -17 -10 -14 -5 3
-10 15 -10 26 0 11 5 17 10 14 6 -3 10 -15 10 -26z m-33 -6 c-4 -3 -7 0 -7 7
0 7 3 10 7 7 3 -4 3 -10 0 -14z m220 0 c-4 -3 -7 0 -7 7 0 7 3 10 7 7 3 -4 3
-10 0 -14z m48 -13 c-5 -8 -11 -8 -17 -2 -6 6 -7 16 -3 22 5 8 11 8 17 2 6 -6
7 -16 3 -22z m-85 1 c5 7 10 8 14 1 3 -6 2 -13 -4 -17 -6 -4 -7 -12 -3 -18 13
-21 12 -37 -3 -37 -8 0 -14 -5 -14 -11 0 -6 7 -9 15 -5 11 4 14 -1 11 -16 -3
-25 -21 -35 -31 -18 -5 8 -12 7 -23 -2 -16 -12 -16 -11 -1 7 10 13 15 35 14
60 -4 51 -3 49 -18 36 -16 -13 -28 -5 -20 14 3 11 11 11 31 4 18 -7 27 -6 32
2z m263 -8 c7 -6 -11 -33 -22 -33 -4 0 -7 9 -8 20 -2 19 16 27 30 13z m-400
-20 c-7 -2 -19 -2 -25 0 -7 3 -2 5 12 5 14 0 19 -2 13 -5z m182 -3 c3 -5 4
-10 1 -10 -3 0 -8 5 -11 10 -3 6 -4 10 -1 10 3 0 8 -4 11 -10z m78 3 c-7 -2
-19 -2 -25 0 -7 3 -2 5 12 5 14 0 19 -2 13 -5z m-226 -10 c-4 -3 -10 -3 -14 0
-3 4 0 7 7 7 7 0 10 -3 7 -7z m28 -3 c3 -5 1 -10 -4 -10 -6 0 -11 5 -11 10 0
6 2 10 4 10 3 0 8 -4 11 -10z m152 3 c-4 -3 -10 -3 -14 0 -3 4 0 7 7 7 7 0 10
-3 7 -7z m-210 -10 c-4 -3 -10 -3 -14 0 -3 4 0 7 7 7 7 0 10 -3 7 -7z m260 0
c-4 -3 -10 -3 -14 0 -3 4 0 7 7 7 7 0 10 -3 7 -7z m98 -4 c4 -5 11 -6 17 -3 7
5 8 2 3 -5 -4 -8 -18 -11 -34 -8 -16 3 -33 -1 -43 -10 -17 -15 -18 -14 -18 6
0 12 4 20 9 16 5 -3 12 -2 15 3 7 11 45 12 51 1z m65 -10 c0 -6 -4 -7 -10 -4
-5 3 -10 11 -10 16 0 6 5 7 10 4 6 -3 10 -11 10 -16z m-341 -35 c-17 -21 -21
-11 -8 22 10 23 13 25 16 11 3 -10 -1 -25 -8 -33z m156 35 c4 -5 -1 -9 -9 -9
-30 0 -27 -23 8 -59 20 -21 34 -40 31 -43 -4 -3 -2 -9 4 -13 6 -3 11 1 11 11
0 23 15 7 25 -25 6 -18 4 -22 -6 -15 -8 5 -18 9 -24 9 -5 0 -16 13 -23 29 -12
24 -18 27 -45 22 -29 -6 -30 -6 -13 13 11 13 14 21 7 26 -18 11 -9 61 11 62
10 1 20 -2 23 -8z m-210 -8 c3 -5 1 -12 -5 -16 -5 -3 -10 1 -10 9 0 18 6 21
15 7z m32 -8 c-4 -3 -7 0 -7 7 0 7 3 10 7 7 3 -4 3 -10 0 -14z m120 -10 c-4
-3 -7 0 -7 7 0 7 3 10 7 7 3 -4 3 -10 0 -14z m80 -10 c-4 -3 -7 0 -7 7 0 7 3
10 7 7 3 -4 3 -10 0 -14z m160 -10 c-4 -3 -7 0 -7 7 0 7 3 10 7 7 3 -4 3 -10
0 -14z m-102 -12 c16 -19 16 -20 -2 -18 -11 0 -20 9 -20 19 -2 23 0 22 22 -1z
m-138 -8 c-4 -3 -7 0 -7 7 0 7 3 10 7 7 3 -4 3 -10 0 -14z m170 10 c-4 -3 -10
-3 -14 0 -3 4 0 7 7 7 7 0 10 -3 7 -7z m-230 -30 c-4 -3 -10 -3 -14 0 -3 4 0
7 7 7 7 0 10 -3 7 -7z m48 -3 c3 -5 2 -10 -4 -10 -5 0 -13 5 -16 10 -3 6 -2
10 4 10 5 0 13 -4 16 -10z m-80 -10 c3 -5 4 -10 1 -10 -3 0 -8 5 -11 10 -3 6
-4 10 -1 10 3 0 8 -4 11 -10z m242 3 c-4 -3 -10 -3 -14 0 -3 4 0 7 7 7 7 0 10
-3 7 -7z m-205 -18 c0 -5 -5 -11 -10 -13 -5 -1 -9 4 -9 13 0 9 4 14 9 13 5 -2
10 -8 10 -13z m104 -5 c0 -11 -6 -22 -13 -24 -11 -5 -12 13 -4 42 4 11 17 -2
17 -18z m122 1 c-7 -11 -16 -17 -20 -14 -10 5 10 33 23 33 5 0 4 -9 -3 -19z
m38 -6 c-9 -9 -16 -13 -16 -8 0 5 5 14 12 21 6 6 14 10 16 7 2 -2 -3 -11 -12
-20z m-207 -27 c0 -31 -1 -31 -10 -10 -5 13 -7 28 -3 33 10 16 14 9 13 -23z
m-102 5 c-4 -3 -7 0 -7 7 0 7 3 10 7 7 3 -4 3 -10 0 -14z m-30 -30 c-4 -3 -7
0 -7 7 0 7 3 10 7 7 3 -4 3 -10 0 -14z m217 -14 c6 -5 16 -3 25 3 15 11 15 10
0 -5 -14 -16 -18 -16 -47 -1 -18 8 -32 18 -32 20 0 7 43 -6 54 -17z m-169 1
c3 -5 2 -10 -4 -10 -5 0 -13 5 -16 10 -3 6 -2 10 4 10 5 0 13 -4 16 -10z m82
-17 c0 -18 -23 -17 -30 1 -4 10 0 14 12 13 10 0 18 -7 18 -14z m73 -8 c8 -9 9
-15 2 -15 -6 0 -14 5 -17 10 -4 6 -16 8 -27 4 -14 -4 -18 -2 -14 5 10 16 41
14 56 -4z m-153 -2 c-4 -3 -10 -3 -14 0 -3 4 0 7 7 7 7 0 10 -3 7 -7z m40 0
c-4 -3 -10 -3 -14 0 -3 4 0 7 7 7 7 0 10 -3 7 -7z m280 -10 c-4 -3 -7 0 -7 7
0 7 3 10 7 7 3 -4 3 -10 0 -14z m-140 -10 c-4 -3 -7 0 -7 7 0 7 3 10 7 7 3 -4
3 -10 0 -14z m165 -13 c-6 -16 -11 -20 -16 -11 -4 6 -2 19 5 27 16 20 21 12
11 -16z m-253 -26 c-17 -21 -21 -11 -8 22 10 23 13 25 16 11 3 -10 -1 -25 -8
-33z m36 36 c3 -5 4 -10 1 -10 -3 0 -8 5 -11 10 -3 6 -4 10 -1 10 3 0 8 -4 11
-10z m172 -7 c-4 -3 -7 0 -7 7 0 7 3 10 7 7 3 -4 3 -10 0 -14z m-340 -10 c-4
-3 -7 0 -7 7 0 7 3 10 7 7 3 -4 3 -10 0 -14z m280 -50 c-5 -7 -14 -13 -20 -13
-7 0 -7 4 1 12 8 8 8 15 1 24 -6 7 -8 18 -4 24 5 8 12 3 20 -12 7 -15 8 -27 2
-35z m40 40 c-4 -3 -7 0 -7 7 0 7 3 10 7 7 3 -4 3 -10 0 -14z m42 -38 c1 -5
-6 -2 -15 7 -10 9 -13 21 -8 29 5 9 9 8 15 -7 4 -10 8 -23 8 -29z m-162 20 c0
-8 -9 -15 -20 -15 -16 0 -17 3 -7 15 7 8 16 15 20 15 3 0 7 -7 7 -15z m-200
-12 c-4 -3 -7 0 -7 7 0 7 3 10 7 7 3 -4 3 -10 0 -14z m39 -17 c1 -9 -3 -20
-10 -25 -10 -8 -13 -2 -13 24 0 24 4 32 11 25 5 -5 11 -16 12 -24z m48 26 c2
-4 -4 -8 -14 -9 -11 -1 -22 2 -25 8 -4 5 3 9 14 9 11 0 22 -4 25 -8z m233 -19
c-4 -3 -10 -3 -14 0 -3 4 0 7 7 7 7 0 10 -3 7 -7z m-102 -13 c-3 -5 -11 -10
-16 -10 -6 0 -7 5 -4 10 3 6 11 10 16 10 6 0 7 -4 4 -10z m-138 -7 c-4 -3 -10
-3 -14 0 -3 4 0 7 7 7 7 0 10 -3 7 -7z m90 0 c-4 -3 -10 -3 -14 0 -3 4 0 7 7
7 7 0 10 -3 7 -7z m120 -10 c-4 -3 -10 -3 -14 0 -3 4 0 7 7 7 7 0 10 -3 7 -7z
m-287 -24 c0 -6 -4 -7 -10 -4 -5 3 -10 11 -10 16 0 6 5 7 10 4 6 -3 10 -11 10
-16z m237 -6 c-4 -3 -7 0 -7 7 0 7 3 10 7 7 3 -4 3 -10 0 -14z m-100 -10 c-4
-3 -7 0 -7 7 0 7 3 10 7 7 3 -4 3 -10 0 -14z m-52 -3 c3 -6 -1 -7 -9 -4 -18 7
-21 14 -7 14 6 0 13 -4 16 -10z m-68 -27 c-4 -3 -7 0 -7 7 0 7 3 10 7 7 3 -4
3 -10 0 -14z m290 0 c-4 -3 -10 -3 -14 0 -3 4 0 7 7 7 7 0 10 -3 7 -7z m-250
-10 c-4 -3 -10 -3 -14 0 -3 4 0 7 7 7 7 0 10 -3 7 -7z m40 0 c-4 -3 -10 -3
-14 0 -3 4 0 7 7 7 7 0 10 -3 7 -7z m110 0 c-4 -3 -10 -3 -14 0 -3 4 0 7 7 7
7 0 10 -3 7 -7z m43 -9 c0 -8 -5 -12 -10 -9 -6 4 -8 11 -5 16 9 14 15 11 15
-7z m101 -1 c13 -16 12 -17 -3 -4 -17 13 -22 21 -14 21 2 0 10 -8 17 -17z
m-54 -10 c-4 -3 -10 -3 -14 0 -3 4 0 7 7 7 7 0 10 -3 7 -7z m-230 -10 c-4 -3
-10 -3 -14 0 -3 4 0 7 7 7 7 0 10 -3 7 -7z m118 -3 c3 -5 -3 -10 -15 -10 -12
0 -18 5 -15 10 3 6 10 10 15 10 5 0 12 -4 15 -10z m-59 -41 c1 -16 -2 -26 -7
-23 -5 3 -9 19 -9 36 0 39 14 28 16 -13z m116 19 c-7 -7 -12 -8 -12 -2 0 14
12 26 19 19 2 -3 -1 -11 -7 -17z m39 5 c13 -16 12 -17 -3 -4 -17 13 -22 21
-14 21 2 0 10 -8 17 -17z m56 0 c-4 -3 -7 0 -7 7 0 7 3 10 7 7 3 -4 3 -10 0
-14z m-320 -10 c-4 -3 -7 0 -7 7 0 7 3 10 7 7 3 -4 3 -10 0 -14z m58 8 c3 -5
1 -12 -4 -15 -5 -3 -11 1 -15 9 -6 16 9 21 19 6z m165 -48 c0 -3 -7 0 -15 7
-13 11 -19 8 -17 -10 0 -3 -8 -7 -19 -7 -17 -2 -18 1 -9 12 6 8 9 19 5 24 -3
7 0 8 9 5 11 -4 16 0 16 12 0 14 4 11 15 -10 8 -15 15 -31 15 -33z m-143 30
c-4 -3 -7 0 -7 7 0 7 3 10 7 7 3 -4 3 -10 0 -14z m220 0 c-4 -3 -7 0 -7 7 0 7
3 10 7 7 3 -4 3 -10 0 -14z m-47 -14 c0 -6 -4 -7 -10 -4 -5 3 -10 11 -10 16 0
6 5 7 10 4 6 -3 10 -11 10 -16z m-270 -10 c0 -6 -4 -7 -10 -4 -5 3 -10 11 -10
16 0 6 5 7 10 4 6 -3 10 -11 10 -16z m-45 -19 c3 -5 2 -10 -4 -10 -5 0 -13 5
-16 10 -3 6 -2 10 4 10 5 0 13 -4 16 -10z m130 -10 c-3 -5 -11 -10 -16 -10 -6
0 -7 5 -4 10 3 6 11 10 16 10 6 0 7 -4 4 -10z m42 -5 c0 -8 -4 -12 -9 -9 -5 3
-6 10 -3 15 9 13 12 11 12 -6z m80 -2 c-4 -3 -10 -3 -14 0 -3 4 0 7 7 7 7 0
10 -3 7 -7z m90 0 c-4 -3 -10 -3 -14 0 -3 4 0 7 7 7 7 0 10 -3 7 -7z m-360
-10 c-4 -3 -10 -3 -14 0 -3 4 0 7 7 7 7 0 10 -3 7 -7z m220 0 c-4 -3 -10 -3
-14 0 -3 4 0 7 7 7 7 0 10 -3 7 -7z m-100 -10 c-4 -3 -10 -3 -14 0 -3 4 0 7 7
7 7 0 10 -3 7 -7z m240 0 c-4 -3 -10 -3 -14 0 -3 4 0 7 7 7 7 0 10 -3 7 -7z
m-190 -20 c-4 -3 -7 0 -7 7 0 7 3 10 7 7 3 -4 3 -10 0 -14z m-100 -25 c-3 -7
-5 -2 -5 12 0 14 2 19 5 13 2 -7 2 -19 0 -25z m80 5 c-4 -3 -7 0 -7 7 0 7 3
10 7 7 3 -4 3 -10 0 -14z m143 -4 c0 -6 -4 -7 -10 -4 -5 3 -10 11 -10 16 0 6
5 7 10 4 6 -3 10 -11 10 -16z m-243 -6 c-4 -3 -7 0 -7 7 0 7 3 10 7 7 3 -4 3
-10 0 -14z m80 -10 c-4 -3 -10 -3 -14 0 -3 4 0 7 7 7 7 0 10 -3 7 -7z m180
-10 c-4 -3 -7 0 -7 7 0 7 3 10 7 7 3 -4 3 -10 0 -14z m-280 0 c-4 -3 -10 -3
-14 0 -3 4 0 7 7 7 7 0 10 -3 7 -7z m220 0 c-4 -3 -10 -3 -14 0 -3 4 0 7 7 7
7 0 10 -3 7 -7z m90 0 c-4 -3 -10 -3 -14 0 -3 4 0 7 7 7 7 0 10 -3 7 -7z
m-225 -25 c-9 -9 -15 -9 -24 0 -9 9 -7 12 12 12 19 0 21 -3 12 -12z m153 2
c-3 -5 -16 -10 -28 -9 -21 0 -21 1 -2 9 28 12 37 12 30 0z m-98 -7 c-4 -3 -10
-3 -14 0 -3 4 0 7 7 7 7 0 10 -3 7 -7z m110 -50 c-4 -3 -7 0 -7 7 0 7 3 10 7
7 3 -4 3 -10 0 -14z m10 -30 c-4 -3 -7 0 -7 7 0 7 3 10 7 7 3 -4 3 -10 0 -14z
m-62 -13 c3 -5 2 -10 -4 -10 -5 0 -13 5 -16 10 -3 6 -2 10 4 10 5 0 13 -4 16
-10z"/>
<path d="M1330 1699 c0 -5 5 -7 10 -4 6 3 10 8 10 11 0 2 -4 4 -10 4 -5 0 -10
-5 -10 -11z"/>
<path d="M1490 1560 c0 -7 6 -10 14 -7 7 3 19 0 26 -6 10 -9 11 -9 8 3 -5 18
-48 26 -48 10z"/>
<path d="M1605 1470 c3 -5 8 -10 11 -10 2 0 4 5 4 10 0 6 -5 10 -11 10 -5 0
-7 -4 -4 -10z"/>
<path d="M1700 1429 c0 -9 10 -24 21 -35 22 -19 22 -19 11 1 -6 11 -16 27 -22
35 -8 13 -10 13 -10 -1z"/>
<path d="M1690 1390 c0 -5 5 -10 11 -10 5 0 7 5 4 10 -3 6 -8 10 -11 10 -2 0
-4 -4 -4 -10z"/>
</g>
</svg>
